<svg id="图层_1" data-name="图层 1" xmlns="http://www.w3.org/2000/svg" viewBox="0 0 432.75 301.5"><defs><style>.cls-1{fill:#333;}.cls-2{fill:#4d4d4d;}.cls-3{fill:#666;}.cls-4{fill:#1a1a1a;}.cls-5{fill:#8c6239;}.cls-6{fill:#603813;}.cls-7{fill:#754c24;}.cls-8{fill:#a67c52;}.cls-9{fill:#42210b;}.cls-10{fill:#c1272d;}</style></defs><title>dogge</title><polygon class="cls-1" points="0 144.5 7.5 160.5 18 152.5 0 144.5"/><polygon class="cls-2" points="42 175.14 18 152.5 7.5 160.5 42 175.14"/><polygon class="cls-3" points="42 155 18 152.5 42 175.14 42 155"/><polygon class="cls-2" points="87 99 42 155 42 175.14 87 99"/><polygon class="cls-4" points="76 160.5 87 99 42 175.14 76 160.5"/><polygon class="cls-1" points="136 156 87 99 76 160.5 136 156"/><polygon class="cls-4" points="173 107.5 87 99 136 156 173 107.5"/><polygon class="cls-2" points="141 80.5 173 107.5 87 99 141 80.5"/><polygon class="cls-3" points="289 72 141 80.5 173 107.5 289 72"/><polygon class="cls-4" points="217.75 141.5 289 72 173 107.5 217.75 141.5"/><polygon class="cls-1" points="136 156 217.75 141.5 215 181 136 156"/><polygon class="cls-3" points="156 186.5 169.62 166.64 136 156 156 186.5"/><polygon class="cls-3" points="76 160.5 109 200.5 136 156 76 160.5"/><polygon class="cls-1" points="64.5 203.5 109 200.5 76 160.5 64.5 203.5"/><polygon class="cls-4" points="117.49 186.5 156 186.5 136 156 117.49 186.5"/><polygon class="cls-2" points="109 200.5 156 186.5 35 231.5 64.5 203.5 109 200.5"/><polygon class="cls-1" points="57.5 248 87 224 102.5 231.5 156 186.5 35 231.5 57.5 248"/><polygon class="cls-3" points="289 72 270 137.07 217.75 141.5 289 72"/><polygon class="cls-2" points="268.5 192 270 137.07 217.75 141.5 268.5 192"/><polygon class="cls-3" points="215 181 268.5 192 217.75 141.5 215 181"/><polygon class="cls-5" points="35 231.5 42 286 57.5 248 35 231.5"/><polygon class="cls-6" points="30 300 42 286 35 231.5 30 300"/><polygon class="cls-5" points="57.5 300 42 286 30 300 57.5 300"/><polygon class="cls-5" points="102.5 231.5 87 271.5 80.34 229.42 87 224 102.5 231.5"/><polygon class="cls-7" points="80.34 284 80.34 229.42 87 271.5 80.34 284"/><polygon class="cls-8" points="106 286 87 271.5 80.34 284 106 286"/><polygon class="cls-1" points="289 72 351 106.75 270 137.07 289 72"/><polygon class="cls-2" points="344 148 351 106.75 270 137.07 344 148"/><polygon class="cls-1" points="268.5 192 270 137.07 344 148 268.5 192"/><polygon class="cls-1" points="316.5 182 344 148 268.5 192 316.5 182"/><polygon class="cls-3" points="355.5 224 316.5 182 310.5 209 355.5 224"/><polygon class="cls-3" points="268.5 192 277.5 256.71 316.5 182 268.5 192"/><polygon class="cls-1" points="292.5 258.75 316.5 182 277.5 256.71 292.5 258.75"/><polygon class="cls-1" points="337.5 237 307.11 212.03 316.5 182 310.5 209 355.5 224 337.5 237"/><polygon class="cls-8" points="366 271.5 355.5 224 337.5 237 366 271.5"/><polygon class="cls-7" points="360 286 366 271.5 337.5 237 360 286"/><polygon class="cls-9" points="383 286 366 271.5 360 286 383 286"/><polygon class="cls-8" points="300 286 292.5 258.75 277.5 256.71 300 286"/><polygon class="cls-6" points="292.5 300 300 286 277.5 256.71 292.5 300"/><polygon class="cls-9" points="316.5 301.5 292.5 300 300 286 316.5 301.5"/><polygon points="344 44.5 351 106.75 289 72 344 44.5"/><polygon class="cls-3" points="351 3.5 289 72 344 44.5 351 3.5"/><polygon class="cls-2" points="371.5 26 351 3.5 344 44.5 371.5 26"/><polygon class="cls-1" points="387 0 371.5 26 351 3.5 387 0"/><polygon class="cls-1" points="406.5 47.5 371.5 26 344 44.5 406.5 47.5"/><polygon class="cls-4" points="387 59 406.5 53 406.5 47.5 344 44.5 387 59"/><polygon class="cls-3" points="375.25 72 387 59 344 44.5 375.25 72"/><polygon class="cls-2" points="351 106.75 344 44.5 375.25 72 351 106.75"/><polygon class="cls-1" points="406.27 80.78 375.21 71.63 387.23 58.87 411 70.13 406.27 80.78"/><polygon class="cls-3" points="401 10.5 387 0 383 24 401 10.5"/><polygon class="cls-4" points="371.5 26 404 21 383 33.06 371.5 26"/><polygon points="401 10.5 404 21 383 24 401 10.5"/><polygon class="cls-10" points="432.75 68.25 420.75 66.25 404 53.77 387 59 411 69.75 424 74.5 432.75 68.25"/><polygon class="cls-3" points="404 21 383 33.06 406.5 47.5 404 21"/><polygon class="cls-6" points="404 21 422.5 27.03 429 37.75 406.5 55.63 404 21"/><polygon points="432.75 27.03 422.5 27.03 429 37.75 432.75 27.03"/><polygon class="cls-5" points="427.63 51.75 429 37.75 406.5 55.63 427.63 51.75"/><polygon class="cls-2" points="387 0 371.5 26 383 24 387 0"/><polygon class="cls-2" points="173 107.5 136 156 217.75 141.5 173 107.5"/><polygon class="cls-1" points="117.49 186.5 109 200.5 156 186.5 117.49 186.5"/></svg>